<svg width="147" height="64" viewBox="0 0 147 64" fill="none" xmlns="http://www.w3.org/2000/svg">
<path d="M9.4 53.673H136.711V9.4H9.4V53.673V53.673ZM146.11 63.074H0V0H146.11V63.074Z" fill="#333333"/>
<path d="M129.576 42.556C129.576 44.351 128.121 45.806 126.326 45.806C124.531 45.806 123.076 44.351 123.076 42.556C123.076 40.761 124.531 39.306 126.326 39.306C128.121 39.306 129.576 40.761 129.576 42.556Z" fill="#333333"/>
<path d="M22.47 45.409C22.206 45.409 21.975 45.31 21.777 45.112C21.579 44.914 21.48 44.683 21.48 44.418V18.695C21.48 18.404 21.572 18.16 21.757 17.962C21.942 17.764 22.18 17.665 22.47 17.665H32.895C36.805 17.665 39.844 18.596 42.011 20.459C44.177 22.322 45.314 24.997 45.419 28.485C45.446 29.251 45.459 30.269 45.459 31.537C45.459 32.805 45.446 33.809 45.419 34.549C45.155 41.789 41.046 45.409 33.093 45.409H22.47ZM32.895 39.464C34.559 39.464 35.788 39.068 36.581 38.275C37.373 37.482 37.796 36.214 37.849 34.47C37.902 33.704 37.928 32.713 37.928 31.497C37.928 30.282 37.902 29.304 37.849 28.564C37.796 26.873 37.34 25.625 36.482 24.819C35.623 24.013 34.361 23.61 32.696 23.61H28.931V39.464H32.895Z" fill="#333333"/>
<path d="M60.679 45.806C56.927 45.806 53.967 44.894 51.801 43.071C49.634 41.248 48.485 38.566 48.352 35.025C48.326 34.285 48.313 33.149 48.313 31.616C48.313 30.084 48.326 28.934 48.352 28.168C48.458 24.68 49.614 21.991 51.821 20.102C54.027 18.213 56.98 17.268 60.679 17.268C64.352 17.268 67.292 18.213 69.498 20.102C71.704 21.991 72.86 24.68 72.966 28.168C73.019 29.7 73.045 30.85 73.045 31.616C73.045 32.409 73.019 33.545 72.966 35.025C72.834 38.566 71.691 41.248 69.538 43.071C67.384 44.894 64.431 45.806 60.679 45.806V45.806ZM60.679 39.86C62.053 39.86 63.15 39.444 63.969 38.612C64.788 37.78 65.224 36.505 65.277 34.787C65.33 33.254 65.356 32.158 65.356 31.497C65.356 30.837 65.33 29.767 65.277 28.287C65.224 26.569 64.788 25.294 63.969 24.462C63.15 23.63 62.053 23.213 60.679 23.213C59.279 23.213 58.169 23.63 57.35 24.462C56.531 25.294 56.095 26.569 56.042 28.287C56.015 29.027 56.002 30.097 56.002 31.497C56.002 32.924 56.015 34.021 56.042 34.787C56.095 36.505 56.531 37.78 57.35 38.612C58.169 39.444 59.279 39.86 60.679 39.86Z" fill="#333333"/>
<path d="M76.93 45.409C76.665 45.409 76.434 45.31 76.236 45.112C76.038 44.914 75.939 44.683 75.939 44.418V18.655C75.939 18.365 76.038 18.127 76.236 17.942C76.434 17.757 76.665 17.665 76.93 17.665H82.479C82.769 17.665 83.007 17.757 83.192 17.942C83.377 18.127 83.47 18.365 83.47 18.655V39.187H95.36C95.651 39.187 95.895 39.286 96.093 39.484C96.292 39.682 96.391 39.926 96.391 40.217V44.418C96.391 44.709 96.292 44.947 96.093 45.132C95.895 45.317 95.651 45.409 95.36 45.409H76.93V45.409Z" fill="#333333"/>
<path d="M100.315 45.409C100.05 45.409 99.819 45.31 99.621 45.112C99.423 44.914 99.324 44.683 99.324 44.418V18.655C99.324 18.365 99.423 18.127 99.621 17.942C99.819 17.757 100.05 17.665 100.315 17.665H105.864C106.154 17.665 106.392 17.757 106.577 17.942C106.762 18.127 106.854 18.365 106.854 18.655V39.187H118.745C119.036 39.187 119.28 39.286 119.478 39.484C119.677 39.682 119.776 39.926 119.776 40.217V44.418C119.776 44.709 119.677 44.947 119.478 45.132C119.28 45.317 119.036 45.409 118.745 45.409H100.315V45.409Z" fill="#333333"/>
</svg>
