<svg width="147" height="64" fill="none" xmlns="http://www.w3.org/2000/svg"><path d="M9.4 53.673h127.311V9.4H9.4v44.273zm136.71 9.401H0V0h146.11v63.074z" fill="#333"/><path d="M129.576 42.556a3.25 3.25 0 1 1-6.5 0 3.25 3.25 0 0 1 6.5 0zM22.47 45.409a.95.95 0 0 1-.693-.297.95.95 0 0 1-.297-.694V18.695c0-.291.092-.535.277-.733a.933.933 0 0 1 .713-.297h10.425c3.91 0 6.949.931 9.116 2.794 2.166 1.863 3.303 4.538 3.408 8.026.027.766.04 1.784.04 3.052s-.013 2.272-.04 3.012c-.264 7.24-4.373 10.86-12.326 10.86H22.47zm10.425-5.945c1.664 0 2.893-.396 3.686-1.189.792-.793 1.215-2.061 1.268-3.805.053-.766.079-1.757.079-2.973 0-1.215-.026-2.193-.079-2.933-.053-1.691-.509-2.939-1.367-3.745-.859-.806-2.121-1.209-3.786-1.209h-3.765v15.854h3.964zM60.679 45.806c-3.752 0-6.712-.912-8.878-2.735-2.167-1.823-3.316-4.505-3.449-8.046a107.12 107.12 0 0 1-.039-3.409c0-1.532.013-2.682.039-3.448.106-3.488 1.262-6.177 3.469-8.066 2.206-1.889 5.159-2.834 8.858-2.834 3.673 0 6.613.945 8.819 2.834 2.206 1.889 3.362 4.578 3.468 8.066.053 1.532.079 2.682.079 3.448 0 .793-.026 1.929-.079 3.409-.132 3.541-1.275 6.223-3.428 8.046-2.154 1.823-5.107 2.735-8.859 2.735zm0-5.946c1.374 0 2.471-.416 3.29-1.248.819-.832 1.255-2.107 1.308-3.825.053-1.533.079-2.629.079-3.29 0-.66-.026-1.73-.079-3.21-.053-1.718-.489-2.993-1.308-3.825-.819-.832-1.916-1.249-3.29-1.249-1.4 0-2.51.417-3.329 1.249-.819.832-1.255 2.107-1.308 3.825-.027.74-.04 1.81-.04 3.21 0 1.427.013 2.524.04 3.29.053 1.718.489 2.993 1.308 3.825.819.832 1.929 1.248 3.329 1.248zM76.93 45.409a.95.95 0 0 1-.694-.297.95.95 0 0 1-.297-.694V18.655c0-.29.099-.528.297-.713a.983.983 0 0 1 .694-.277h5.549c.29 0 .528.092.713.277a.966.966 0 0 1 .278.713v20.532h11.89c.291 0 .535.099.733.297a.992.992 0 0 1 .298.733v4.201a.93.93 0 0 1-.298.714 1.032 1.032 0 0 1-.733.277H76.93zM100.315 45.409a.95.95 0 0 1-.694-.297.95.95 0 0 1-.297-.694V18.655c0-.29.099-.528.297-.713a.983.983 0 0 1 .694-.277h5.549c.29 0 .528.092.713.277a.965.965 0 0 1 .277.713v20.532h11.891c.291 0 .535.099.733.297a.992.992 0 0 1 .298.733v4.201a.93.93 0 0 1-.298.714 1.032 1.032 0 0 1-.733.277h-18.43z" fill="#333"/></svg>